<svg width="67" height="64" viewBox="0 0 67 64" fill="none" xmlns="http://www.w3.org/2000/svg">
<path d="M50.4333 30L54.6333 25.8C56.1 24.3333 57.9667 23.5333 60 23.3333V20L40 0H6.66667C2.96667 0 0 2.96667 0 6.66667V53.3333C0 57 2.96667 60 6.66667 60H26.6667V53.7667L27.1 53.3333H6.66667V6.66667H30V30H50.4333ZM36.6667 5L55 23.3333H36.6667V5ZM53.7667 36.1L60.5667 42.9L40.1333 63.3333H33.3333V56.5333L53.7667 36.1ZM66.1667 37.3L62.9 40.5667L56.1 33.7667L59.3667 30.5C60 29.8333 61.1 29.8333 61.7667 30.5L66.1667 34.9C66.8333 35.5667 66.8333 36.6667 66.1667 37.3Z" fill="white"/>
</svg>
